<?xml version="1.0" encoding="utf-8"?>
<!-- Generator: Adobe Illustrator 19.2.0, SVG Export Plug-In . SVG Version: 6.00 Build 0)  -->
<svg version="1.1" id="Layer_1" xmlns="http://www.w3.org/2000/svg" xmlns:xlink="http://www.w3.org/1999/xlink" x="0px" y="0px"
	 viewBox="0 0 24 24" style="enable-background:new 0 0 24 24;" xml:space="preserve">
<style type="text/css">
	.st0{fill:url(#SVGID_1_);}
</style>
<linearGradient id="SVGID_1_" gradientUnits="userSpaceOnUse" x1="12" y1="19" x2="12" y2="5">
	<stop  offset="0" style="stop-color:#394FB7"/>
	<stop  offset="1" style="stop-color:#662D91"/>
</linearGradient>
<path class="st0" d="M0,12.6L1.9,5l3.5,0.9l-2,7.6L0,12.6L0,12.6z M18.4,13.5c0.1,0.3,0.2,0.6,0.2,0.9c-0.1,0.8-0.7,1.4-1.5,1.6
	c-0.2,0.5-0.7,0.9-1.3,1c-0.2,0.5-0.7,0.9-1.3,1c-0.3,0.7-1,1-1.7,1c-0.5,0-1-0.2-1.4-0.5c-0.9,0.4-1.9,0-2.2-0.9
	c-0.6-0.1-1.1-0.4-1.3-1c-0.6-0.1-1.1-0.5-1.3-1c-0.9-0.1-1.5-0.9-1.4-1.8c0-0.3,0.1-0.5,0.2-0.7C5.2,13,4.9,13,4.7,13L5,11.5
	c0.5,0.1,1,0.2,1.5,0.4c0.9-0.7,2.2-0.3,2.5,0.7c0.6,0.1,1.1,0.4,1.3,1c0.6,0.1,1.1,0.4,1.3,1c0.7,0.1,1.4,0.7,1.4,1.4
	c0,0.1,0,0.1,0,0.2l0.4,0.4c0.3,0.3,0.7,0.3,1,0.1c0.3-0.2,0.3-0.6,0.1-0.9c0,0,0,0,0,0l-1.5-1.3c-0.2-0.1,0.1-0.4,0.2-0.2l1.5,1.3
	c0.3,0.3,0.7,0.3,1,0.1c0.3-0.2,0.3-0.6,0.1-0.9L14,13.1c-0.2-0.1,0-0.4,0.2-0.2l1.9,1.7c0.2,0.3,0.7,0.3,1,0.1c0.3-0.2,0.4-0.6,0-1
	c-1.4-1.2-2.8-2.5-4.1-3.8c-0.4,0.5-2.2,1.5-3.3,1.5s-1.8-0.7-2-1.3C7.6,9.5,7.8,8.9,8.3,8.6c0.5-0.3,1.1-0.8,1.6-1.3
	C9.1,6.8,8.7,7,7.8,7.4C7.3,7.6,6.7,7.9,5.9,8l0.4-1.7c1.3-0.5,2.5-1.6,4.5-0.1c0.2-0.2,0.3-0.3,0.5-0.6C11.8,5.3,12.3,5,12.9,5
	c0.4,0,0.9,0.2,1.4,0.4c1.5,0.8,2.3,1.3,3.4,1.3l0.4,1.5h0c-1.8,0-2.7-0.5-4.5-1.5c-0.5-0.3-0.9-0.3-1.1,0c-1,1.1-2,2.3-3.2,3.1
	c0.6,0.5,2-0.5,2.6-0.9c0.2-0.2,0.6-0.5,1.1-0.5c0.6,0,1,0.3,1.2,0.6c0.7,0.7,2.6,2.4,3.4,3.1c0.4-0.2,0.9-0.4,1.3-0.6l0.4,1.5
	C19,13.1,18.7,13.3,18.4,13.5L18.4,13.5z M7.4,14.3L8,13.6c0.2-0.3,0.2-0.7-0.1-0.9c-0.3-0.2-0.7-0.2-1,0.1l-0.6,0.8
	c-0.2,0.3-0.2,0.7,0.1,0.9S7.1,14.6,7.4,14.3L7.4,14.3z M8.7,15.3l0.6-0.8c0.2-0.3,0.2-0.7-0.1-0.9c-0.3-0.2-0.7-0.2-1,0.1l-0.6,0.8
	c-0.2,0.3-0.2,0.7,0.1,0.9C8,15.7,8.5,15.6,8.7,15.3L8.7,15.3z M10,16.3l0.6-0.7c0.2-0.3,0.2-0.7-0.1-0.9c-0.3-0.2-0.7-0.2-1,0.1
	L9,15.5c-0.2,0.3-0.2,0.7,0.1,0.9C9.4,16.7,9.8,16.6,10,16.3L10,16.3z M11.9,15.6c-0.3-0.2-0.7-0.2-1,0.1l-0.6,0.8
	c-0.2,0.3-0.2,0.7,0.1,0.9c0.3,0.2,0.7,0.2,1-0.1l0.6-0.8C12.2,16.3,12.2,15.9,11.9,15.6L11.9,15.6z M13.3,16.8l-0.2-0.2
	c-0.1,0.2-0.2,0.5-0.3,0.6l-0.4,0.4c0.1,0.1,0.3,0.2,0.4,0.2c0.1,0,0.3,0,0.4-0.1C13.6,17.5,13.6,17.1,13.3,16.8L13.3,16.8z
	 M18.5,5.9l2,7.6l3.5-0.9L22.1,5L18.5,5.9L18.5,5.9z"/>
</svg>
