<?xml version="1.0" encoding="utf-8"?>
<!-- Generator: Adobe Illustrator 19.2.0, SVG Export Plug-In . SVG Version: 6.00 Build 0)  -->
<svg version="1.1" id="Layer_1" xmlns="http://www.w3.org/2000/svg" xmlns:xlink="http://www.w3.org/1999/xlink" x="0px" y="0px"
	 viewBox="0 0 24 24" style="enable-background:new 0 0 24 24;" xml:space="preserve">
<style type="text/css">
	.st0{fill:url(#SVGID_1_);}
</style>
<linearGradient id="SVGID_1_" gradientUnits="userSpaceOnUse" x1="11.95" y1="19.2" x2="11.95" y2="1.2">
	<stop  offset="0" style="stop-color:#394FB7"/>
	<stop  offset="1" style="stop-color:#662D91"/>
</linearGradient>
<path class="st0" d="M15.7,10.2c-2.5,0-4.5,2-4.5,4.5s2,4.5,4.5,4.5s4.5-2,4.5-4.5S18.3,10.2,15.7,10.2z M16.1,16.6V17h-0.4v-0.4
	c-0.4,0-0.8-0.1-1.1-0.3l0.2-0.6c0.4,0.2,0.8,0.3,1.2,0.2c0.5-0.1,0.5-0.5,0-0.7c-0.4-0.2-1.5-0.3-1.5-1.2c0-0.5,0.4-1,1.1-1.1v-0.4
	H16v0.4c0.3,0,0.5,0.1,0.9,0.2l-0.1,0.6c-0.3-0.1-0.6-0.2-0.9-0.2c-0.5,0-0.6,0.5-0.2,0.7c0.6,0.3,1.5,0.5,1.5,1.4
	C17.3,16.1,16.7,16.5,16.1,16.6L16.1,16.6z M17.4,8.9C18.2,8.7,19,8.5,19.6,8v0.5c0,0.4-0.3,0.7-0.7,1C18.3,9.3,17.8,9,17.4,8.9
	L17.4,8.9z M15.7,4.6c2,0,3.7-0.7,3.7-1.7s-1.7-1.7-3.7-1.7S12,1.8,12,2.8S13.7,4.6,15.7,4.6z M15.8,3c-0.2-0.1-0.9-0.1-0.9-0.5
	c0-0.2,0.3-0.4,0.7-0.5V1.9h0.3v0.2c0.2,0,0.4,0,0.5,0.1l-0.1,0.3c-0.2,0-0.4-0.1-0.5-0.1c0,0,0,0-0.1,0c-0.4,0-0.4,0.2-0.2,0.3
	c0.4,0.1,0.9,0.2,0.9,0.5S16,3.7,15.7,3.7v0.2h-0.1V3.6c-0.3,0-0.5,0-0.7-0.1L15,3.3c0.2,0.1,0.5,0.1,0.6,0.1s0.1,0,0.2,0
	C16.1,3.3,16.1,3.1,15.8,3L15.8,3z M7.5,12.8c1.1,0,2.1-0.2,2.8-0.5c0.3-0.5,0.5-1,0.9-1.5C10.8,10,9.3,9.5,7.5,9.5
	c-2,0-3.7,0.7-3.7,1.7S5.4,12.8,7.5,12.8z M7.5,11.3c-0.2-0.1-0.9-0.1-0.9-0.5c0-0.2,0.3-0.4,0.7-0.5v-0.1h0.3v0.2
	c0.2,0,0.4,0,0.5,0.1L8,10.8c-0.2,0-0.4-0.1-0.5-0.1c0,0,0,0-0.1,0C7,10.7,7,10.9,7.2,11c0.5,0.1,0.9,0.2,0.9,0.5S7.7,12,7.4,12v0.2
	h0V12c-0.3,0-0.5,0-0.7-0.1l0.1-0.3c0.2,0.1,0.5,0.1,0.6,0.1s0.1,0,0.2,0C7.8,11.6,7.8,11.4,7.5,11.3L7.5,11.3z M10.5,17.8
	c-0.7,0.5-1.8,0.7-3.1,0.7c-2,0-3.7-0.7-3.7-1.7v-0.5c0.8,0.7,2.4,1.1,3.7,1.1c0.9,0,1.9-0.2,2.6-0.5C10.3,17.2,10.5,17.5,10.5,17.8
	z M3.7,14.9v-0.5c0.8,0.7,2.4,1.1,3.7,1.1c0.8,0,1.5-0.1,2.3-0.4c0,0.4,0.1,0.7,0.2,1c-0.6,0.2-1.5,0.4-2.5,0.4
	C5.4,16.6,3.7,15.8,3.7,14.9z M3.7,13v-0.5c0.8,0.7,2.4,1.1,3.7,1.1c0.8,0,1.7-0.1,2.5-0.4c-0.1,0.4-0.2,0.7-0.2,1.2
	c-0.6,0.1-1.4,0.3-2.3,0.3C5.4,14.8,3.7,13.9,3.7,13z M12,4.7V4.3c0.8,0.7,2.4,1.1,3.7,1.1c1.5,0,2.9-0.4,3.7-1.1v0.5
	c0,0.9-1.7,1.7-3.7,1.7S12,5.7,12,4.7z M12,8.5V8c0.5,0.5,1.3,0.7,2.2,0.9c-0.5,0.1-1,0.4-1.4,0.5C12.3,9.2,12,8.9,12,8.5z M12,6.7
	V6.1c0.8,0.7,2.4,1.1,3.7,1.1c1.5,0,2.9-0.4,3.7-1.1v0.5c0,0.9-1.7,1.7-3.7,1.7S12,7.6,12,6.7z"/>
</svg>
